# xmcd
#
# Track frame offsets: 
#        150
#        21150
#        41262
#        59962
#        76925
#        98600
#        121375
#        142912
#        162812
#        186150
#        204100
#        221537
#        236825
#        256150
#        283900
#
# Disc length: 4350 seconds
#
# Revision: 2
# Processed by: cddbd v1.5.2PL0 Copyright (c) Steve Scherf et al.
# Submitted via: ExactAudioCopyFreeDBPlugin 1.0
#
DISCID=ce10fc0f
DTITLE=Various Artist - Crossroad Soul Deep Blues 1
DYEAR=2001
DGENRE=Blues
TTITLE0=Tom Robinson - Hard
TTITLE1=Theodis Ealey - House Of The Rising Sun
TTITLE2=Chick Wills - I Want A Big Fat Women
TTITLE3=Artie White - Rainy Day
TTITLE4=Francine Reed - Wild Woman
TTITLE5=The Shadows - Leaving Town
TTITLE6=Trudy Lynn - Try To Leave Me If You Can
TTITLE7=Gray B.B. Coleman - One-Eye Woman
TTITLE8=Blues Boy Willie - The Rest Of My Life
TTITLE9=Clarence Carter - Why Do I Stay Here And Take This Shit From Y
TTITLE9=ou
TTITLE10=Floyo Miles - Cold, Cold World
TTITLE11=Joy Simon - Drowning In The Sea Of Love
TTITLE12=William Bell - You Don't Miss Your Water
TTITLE13=Gary B.B. Coleman - Whtach Where You Stroke
TTITLE14=Trudy Lynn - Trudy Sings The Blue
EXTD=YEAR: 2001
EXTT0=
EXTT1=
EXTT2=
EXTT3=
EXTT4=
EXTT5=
EXTT6=
EXTT7=
EXTT8=
EXTT9=
EXTT10=
EXTT11=
EXTT12=
EXTT13=
EXTT14=
PLAYORDER=
